<mxfile host="app.diagrams.net" modified="2023-04-21T01:47:30.573Z" agent="Mozilla/5.0 (Windows NT 10.0; Win64; x64) AppleWebKit/537.36 (KHTML, like Gecko) Chrome/112.0.0.0 Safari/537.36" etag="et-CbBl6fMtTptlx8hsK" version="21.2.1" type="github">
  <diagram name="Page-1" id="9361dd3d-8414-5efd-6122-117bd74ce7a7">
    <mxGraphModel dx="1434" dy="1164" grid="1" gridSize="10" guides="1" tooltips="1" connect="1" arrows="1" fold="1" page="0" pageScale="1.5" pageWidth="826" pageHeight="1169" background="none" math="0" shadow="0">
      <root>
        <mxCell id="0" />
        <mxCell id="1" parent="0" />
        <mxCell id="GIsDfXiIyZo6SDEHgWUa-102" style="edgeStyle=orthogonalEdgeStyle;orthogonalLoop=1;jettySize=auto;html=1;exitX=0.5;exitY=1;exitDx=0;exitDy=0;entryX=0.5;entryY=0;entryDx=0;entryDy=0;shadow=0;curved=1;strokeWidth=2;rounded=1;" parent="1" source="GIsDfXiIyZo6SDEHgWUa-97" target="GIsDfXiIyZo6SDEHgWUa-98" edge="1">
          <mxGeometry relative="1" as="geometry" />
        </mxCell>
        <mxCell id="GIsDfXiIyZo6SDEHgWUa-103" style="edgeStyle=orthogonalEdgeStyle;orthogonalLoop=1;jettySize=auto;html=1;exitX=0.5;exitY=1;exitDx=0;exitDy=0;entryX=0.5;entryY=0;entryDx=0;entryDy=0;curved=1;strokeWidth=2;rounded=1;" parent="1" source="GIsDfXiIyZo6SDEHgWUa-97" target="GIsDfXiIyZo6SDEHgWUa-99" edge="1">
          <mxGeometry relative="1" as="geometry" />
        </mxCell>
        <mxCell id="GIsDfXiIyZo6SDEHgWUa-104" style="edgeStyle=orthogonalEdgeStyle;orthogonalLoop=1;jettySize=auto;html=1;exitX=0.5;exitY=1;exitDx=0;exitDy=0;curved=1;strokeWidth=2;rounded=1;" parent="1" source="GIsDfXiIyZo6SDEHgWUa-97" target="GIsDfXiIyZo6SDEHgWUa-100" edge="1">
          <mxGeometry relative="1" as="geometry" />
        </mxCell>
        <mxCell id="GIsDfXiIyZo6SDEHgWUa-105" style="edgeStyle=orthogonalEdgeStyle;orthogonalLoop=1;jettySize=auto;html=1;exitX=0.5;exitY=1;exitDx=0;exitDy=0;curved=1;strokeWidth=2;rounded=1;" parent="1" source="GIsDfXiIyZo6SDEHgWUa-97" target="GIsDfXiIyZo6SDEHgWUa-101" edge="1">
          <mxGeometry relative="1" as="geometry" />
        </mxCell>
        <mxCell id="GIsDfXiIyZo6SDEHgWUa-97" value="&lt;font style=&quot;font-size: 16px;&quot;&gt;pos-gateway&lt;/font&gt;" style="rounded=1;whiteSpace=wrap;html=1;shadow=0;glass=0;fillColor=#ffcd28;gradientColor=#ffa500;strokeColor=#d79b00;" parent="1" vertex="1">
          <mxGeometry x="450" y="-40" width="690" height="90" as="geometry" />
        </mxCell>
        <mxCell id="GIsDfXiIyZo6SDEHgWUa-98" value="&lt;font style=&quot;font-size: 16px;&quot;&gt;pos-txn&lt;/font&gt;" style="rounded=1;whiteSpace=wrap;html=1;shadow=0;glass=0;fillColor=#fff2cc;gradientColor=#ffd966;strokeColor=#d6b656;" parent="1" vertex="1">
          <mxGeometry x="280" y="210" width="170" height="80" as="geometry" />
        </mxCell>
        <mxCell id="GIsDfXiIyZo6SDEHgWUa-99" value="&lt;font style=&quot;font-size: 16px;&quot;&gt;pos-dao&lt;/font&gt;" style="rounded=1;whiteSpace=wrap;html=1;shadow=0;glass=0;fillColor=#d5e8d4;gradientColor=#97d077;strokeColor=#82b366;" parent="1" vertex="1">
          <mxGeometry x="600" y="210" width="170" height="80" as="geometry" />
        </mxCell>
        <mxCell id="GIsDfXiIyZo6SDEHgWUa-100" value="&lt;font style=&quot;font-size: 16px;&quot;&gt;pos-po&lt;br&gt;&lt;/font&gt;" style="rounded=1;whiteSpace=wrap;html=1;shadow=0;glass=0;fillColor=#dae8fc;gradientColor=#7ea6e0;strokeColor=#6c8ebf;" parent="1" vertex="1">
          <mxGeometry x="900" y="210" width="170" height="80" as="geometry" />
        </mxCell>
        <mxCell id="GIsDfXiIyZo6SDEHgWUa-101" value="&lt;font style=&quot;font-size: 16px;&quot;&gt;pos-do&lt;br&gt;&lt;/font&gt;" style="rounded=1;whiteSpace=wrap;html=1;shadow=0;glass=0;fillColor=#f5f5f5;gradientColor=#b3b3b3;strokeColor=#666666;" parent="1" vertex="1">
          <mxGeometry x="1160" y="210" width="170" height="80" as="geometry" />
        </mxCell>
      </root>
    </mxGraphModel>
  </diagram>
</mxfile>
